
<svg width="26px" height="22px" viewBox="0 0 26 22" version="1.1" xmlns="http://www.w3.org/2000/svg" xmlns:xlink="http://www.w3.org/1999/xlink">
    <!-- Generator: Sketch 47.1 (45422) - http://www.bohemiancoding.com/sketch -->
    <desc>Created with Sketch.</desc>
    <defs></defs>
    <g id="Symbols" stroke="none" stroke-width="1" fill="none" fill-rule="evenodd">
        <g id="Controls/Slider/Light-Volume" transform="translate(-343.000000, -11.000000)" fill="#8E8E93">
            <path d="M364.809169,11.3013741 C364.591172,11.0223783 364.107179,10.8898803 363.832684,11.1113769 C363.558688,11.3323736 363.41069,11.8233661 363.628187,12.1023619 C365.854653,14.9498186 367.031635,18.3807665 367.031635,22.0242112 C367.031635,25.6681558 365.854653,29.0991037 363.628187,31.9465605 C363.41069,32.2255562 363.558688,32.7165488 363.832684,32.9375454 C363.949682,33.031544 364.173178,32.9915446 364.311176,32.9915446 C364.498173,32.9915446 364.684171,32.9080459 364.809169,32.7475483 C367.215132,29.669595 368.487113,25.9616514 368.487113,22.0242112 C368.487113,18.087271 367.215132,14.3793273 364.809169,11.3013741 M361.320222,14.2738289 C361.102725,13.9993331 360.643732,13.9053345 360.374236,14.1288311 C360.10624,14.3518277 359.898743,14.8063208 360.11624,15.0803167 C361.663217,17.031287 362.514704,19.4922496 362.514704,22.0087114 C362.514704,24.5256732 361.663217,26.9861358 360.11624,28.9371062 C359.898743,29.211102 360.08974,29.6655951 360.357736,29.8885917 C360.473735,29.9850903 360.696231,29.9800903 360.834229,29.9800903 C361.016726,29.9800903 361.196724,29.8995916 361.320222,29.7435939 C363.046695,27.565127 363.997681,24.8186687 363.997681,22.0087114 C363.997681,19.1992541 363.046695,16.4522958 361.320222,14.2738289 M356.754291,17.1272856 C356.481295,17.3512822 356.276298,17.7457762 356.508795,18.0082722 C357.49528,19.1232552 358.038272,20.5437337 358.038272,22.0082114 C358.038272,23.4731892 357.49528,24.8936676 356.508795,26.0081507 C356.276298,26.2706467 356.481295,26.6656407 356.754291,26.8891373 C356.876289,26.9896358 357.026287,27.039135 357.174285,27.039135 C357.357782,27.039135 357.539779,26.9641361 357.668277,26.8196383 C358.854259,25.4791587 359.507749,23.7701847 359.507749,22.0082114 C359.507749,20.2462382 358.854259,18.5377641 357.668277,17.1972845 C357.436281,16.9347885 357.026787,16.902289 356.754291,17.1272856 M353.084347,14.6838227 L347.312434,19.0122569 L343,19.0122569 L343,25.5121582 L347.109938,25.5121582 L353.084347,29.9930901 C353.304343,30.1580876 353.484341,30.068089 353.484341,29.7930932 L353.484341,14.8838196 C353.484341,14.6088238 353.304343,14.5188252 353.084347,14.6838227" id="louder-icon"></path>
        </g>
    </g>
</svg>